<svg xmlns="http://www.w3.org/2000/svg" xmlns:xlink="http://www.w3.org/1999/xlink" width="1080" zoomAndPan="magnify" viewBox="0 0 810 1012.49997" height="1350" preserveAspectRatio="xMidYMid meet" version="1.0"><defs><clipPath id="19b23acdfa"><path d="M 307.027344 408.027344 L 698.914062 408.027344 L 698.914062 799.917969 L 307.027344 799.917969 Z M 307.027344 408.027344 " clip-rule="nonzero"/></clipPath><clipPath id="aefc962f4f"><path d="M 345.257812 408.027344 L 660.683594 408.027344 C 670.824219 408.027344 680.546875 412.054688 687.71875 419.226562 C 694.886719 426.394531 698.914062 436.121094 698.914062 446.257812 L 698.914062 761.683594 C 698.914062 771.824219 694.886719 781.546875 687.71875 788.71875 C 680.546875 795.886719 670.824219 799.917969 660.683594 799.917969 L 345.257812 799.917969 C 335.121094 799.917969 325.394531 795.886719 318.226562 788.71875 C 311.054688 781.546875 307.027344 771.824219 307.027344 761.683594 L 307.027344 446.257812 C 307.027344 436.121094 311.054688 426.394531 318.226562 419.226562 C 325.394531 412.054688 335.121094 408.027344 345.257812 408.027344 Z M 345.257812 408.027344 " clip-rule="nonzero"/></clipPath><clipPath id="fa91cab2d5"><path d="M 307.027344 408.027344 L 699 408.027344 L 699 800 L 307.027344 800 Z M 307.027344 408.027344 " clip-rule="nonzero"/></clipPath><clipPath id="51529def3b"><path d="M 345.257812 408.027344 L 660.679688 408.027344 C 670.816406 408.027344 680.542969 412.054688 687.710938 419.226562 C 694.882812 426.394531 698.910156 436.121094 698.910156 446.257812 L 698.910156 761.679688 C 698.910156 771.816406 694.882812 781.542969 687.710938 788.710938 C 680.542969 795.882812 670.816406 799.910156 660.679688 799.910156 L 345.257812 799.910156 C 335.117188 799.910156 325.394531 795.882812 318.226562 788.710938 C 311.054688 781.542969 307.027344 771.816406 307.027344 761.679688 L 307.027344 446.257812 C 307.027344 436.121094 311.054688 426.394531 318.226562 419.226562 C 325.394531 412.054688 335.117188 408.027344 345.257812 408.027344 Z M 345.257812 408.027344 " clip-rule="nonzero"/></clipPath><clipPath id="9ee42ce72e"><path d="M 111.085938 212.085938 L 502.972656 212.085938 L 502.972656 603.972656 L 111.085938 603.972656 Z M 111.085938 212.085938 " clip-rule="nonzero"/></clipPath><clipPath id="793bc5350d"><path d="M 149.316406 212.085938 L 464.742188 212.085938 C 474.878906 212.085938 484.605469 216.113281 491.773438 223.28125 C 498.945312 230.453125 502.972656 240.175781 502.972656 250.316406 L 502.972656 565.742188 C 502.972656 575.878906 498.945312 585.605469 491.773438 592.773438 C 484.605469 599.945312 474.878906 603.972656 464.742188 603.972656 L 149.316406 603.972656 C 139.175781 603.972656 129.453125 599.945312 122.28125 592.773438 C 115.113281 585.605469 111.085938 575.878906 111.085938 565.742188 L 111.085938 250.316406 C 111.085938 240.175781 115.113281 230.453125 122.28125 223.28125 C 129.453125 216.113281 139.175781 212.085938 149.316406 212.085938 Z M 149.316406 212.085938 " clip-rule="nonzero"/></clipPath><clipPath id="3b0a6be9c8"><path d="M 111.085938 212.085938 L 503 212.085938 L 503 604 L 111.085938 604 Z M 111.085938 212.085938 " clip-rule="nonzero"/></clipPath><clipPath id="22c51539f2"><path d="M 149.3125 212.085938 L 464.734375 212.085938 C 474.875 212.085938 484.597656 216.113281 491.765625 223.28125 C 498.9375 230.449219 502.964844 240.175781 502.964844 250.316406 L 502.964844 565.734375 C 502.964844 575.875 498.9375 585.597656 491.765625 592.765625 C 484.597656 599.9375 474.875 603.964844 464.734375 603.964844 L 149.3125 603.964844 C 139.175781 603.964844 129.449219 599.9375 122.28125 592.765625 C 115.113281 585.597656 111.085938 575.875 111.085938 565.734375 L 111.085938 250.316406 C 111.085938 240.175781 115.113281 230.449219 122.28125 223.28125 C 129.449219 216.113281 139.175781 212.085938 149.3125 212.085938 Z M 149.3125 212.085938 " clip-rule="nonzero"/></clipPath></defs><g clip-path="url(#19b23acdfa)"><g clip-path="url(#aefc962f4f)"><path fill="#000000" d="M 307.027344 408.027344 L 698.914062 408.027344 L 698.914062 799.917969 L 307.027344 799.917969 Z M 307.027344 408.027344 " fill-opacity="1" fill-rule="nonzero"/></g></g><g clip-path="url(#fa91cab2d5)"><g clip-path="url(#51529def3b)"><path stroke-linecap="butt" transform="matrix(0.74963, 0, 0, 0.74963, 307.028001, 408.028108)" fill="none" stroke-linejoin="miter" d="M 50.998254 -0.00101888 L 471.768443 -0.00101888 C 485.290742 -0.00101888 498.265896 5.371425 507.827908 14.938647 C 517.39513 24.500658 522.767574 37.475813 522.767574 50.998112 L 522.767574 471.7683 C 522.767574 485.2906 517.39513 498.265754 507.827908 507.827766 C 498.265896 517.394988 485.290742 522.767431 471.768443 522.767431 L 50.998254 522.767431 C 37.470744 522.767431 24.5008 517.394988 14.938789 507.827766 C 5.371567 498.265754 -0.000876696 485.2906 -0.000876696 471.7683 L -0.000876696 50.998112 C -0.000876696 37.475813 5.371567 24.500658 14.938789 14.938647 C 24.5008 5.371425 37.470744 -0.00101888 50.998254 -0.00101888 Z M 50.998254 -0.00101888 " stroke="#ffffff" stroke-width="80" stroke-opacity="1" stroke-miterlimit="4"/></g></g><g clip-path="url(#9ee42ce72e)"><g clip-path="url(#793bc5350d)"><path fill="#000000" d="M 111.085938 212.085938 L 502.972656 212.085938 L 502.972656 603.972656 L 111.085938 603.972656 Z M 111.085938 212.085938 " fill-opacity="1" fill-rule="nonzero"/></g></g><g clip-path="url(#3b0a6be9c8)"><g clip-path="url(#22c51539f2)"><path stroke-linecap="butt" transform="matrix(0.74963, 0, 0, 0.74963, 111.083991, 212.084095)" fill="none" stroke-linejoin="miter" d="M 50.996517 0.00245763 L 471.766705 0.00245763 C 485.294215 0.00245763 498.264159 5.374901 507.82617 14.936912 C 517.393393 24.498924 522.765836 37.474078 522.765836 51.001589 L 522.765836 471.766566 C 522.765836 485.294076 517.393393 498.26402 507.82617 507.826031 C 498.264159 517.393254 485.294215 522.765697 471.766705 522.765697 L 50.996517 522.765697 C 37.474217 522.765697 24.499063 517.393254 14.937051 507.826031 C 5.37504 498.26402 0.00259662 485.294076 0.00259662 471.766566 L 0.00259662 51.001589 C 0.00259662 37.474078 5.37504 24.498924 14.937051 14.936912 C 24.499063 5.374901 37.474217 0.00245763 50.996517 0.00245763 Z M 50.996517 0.00245763 " stroke="#ffffff" stroke-width="80" stroke-opacity="1" stroke-miterlimit="4"/></g></g></svg>