<svg xmlns="http://www.w3.org/2000/svg" xmlns:xlink="http://www.w3.org/1999/xlink" width="1080" zoomAndPan="magnify" viewBox="0 0 810 1012.49997" height="1350" preserveAspectRatio="xMidYMid meet" version="1.0"><defs><clipPath id="1847c7876c"><path d="M 283.558594 323.839844 L 526.441406 323.839844 L 526.441406 566.71875 L 283.558594 566.71875 Z M 283.558594 323.839844 " clip-rule="nonzero"/></clipPath><clipPath id="94a95afc59"><path d="M 405 566.71875 L 283.558594 445.28125 L 344.28125 445.28125 L 344.28125 323.839844 L 465.71875 323.839844 L 465.71875 445.28125 L 526.441406 445.28125 Z M 405 566.71875 " clip-rule="nonzero"/></clipPath></defs><g clip-path="url(#1847c7876c)"><g clip-path="url(#94a95afc59)"><path fill="#ffffff" d="M 283.558594 323.839844 L 526.441406 323.839844 L 526.441406 566.71875 L 283.558594 566.71875 Z M 283.558594 323.839844 " fill-opacity="1" fill-rule="nonzero"/></g></g><path stroke-linecap="butt" transform="matrix(0.74963, 0, 0, 0.74963, 233.542717, 682.996117)" fill="none" stroke-linejoin="miter" d="M 0.000336074 17.49819 L 457.444906 17.49819 " stroke="#ffffff" stroke-width="35" stroke-opacity="1" stroke-miterlimit="4"/><path stroke-linecap="butt" transform="matrix(0, -0.74963, 0.74963, 0, 233.541282, 696.113223)" fill="none" stroke-linejoin="miter" d="M -0.0000780665 17.500471 L 228.722207 17.500471 " stroke="#ffffff" stroke-width="35" stroke-opacity="1" stroke-miterlimit="4"/><path stroke-linecap="butt" transform="matrix(0, -0.74963, 0.74963, 0, 550.21874, 696.113223)" fill="none" stroke-linejoin="miter" d="M -0.0000780665 17.498235 L 228.722207 17.498235 " stroke="#ffffff" stroke-width="35" stroke-opacity="1" stroke-miterlimit="4"/></svg>