<svg xmlns="http://www.w3.org/2000/svg" xmlns:xlink="http://www.w3.org/1999/xlink" width="1080" zoomAndPan="magnify" viewBox="0 0 810 1012.49997" height="1350" preserveAspectRatio="xMidYMid meet" version="1.0"><defs><clipPath id="f5328db333"><path d="M 209.832031 310.832031 L 600.390625 310.832031 L 600.390625 701.390625 L 209.832031 701.390625 Z M 209.832031 310.832031 " clip-rule="nonzero"/></clipPath><clipPath id="937427533b"><path d="M 248.0625 310.832031 L 561.9375 310.832031 C 572.074219 310.832031 581.800781 314.859375 588.96875 322.03125 C 596.140625 329.199219 600.167969 338.921875 600.167969 349.0625 L 600.167969 662.9375 C 600.167969 673.074219 596.140625 682.800781 588.96875 689.96875 C 581.800781 697.140625 572.074219 701.167969 561.9375 701.167969 L 248.0625 701.167969 C 237.921875 701.167969 228.199219 697.140625 221.03125 689.96875 C 213.859375 682.800781 209.832031 673.074219 209.832031 662.9375 L 209.832031 349.0625 C 209.832031 338.921875 213.859375 329.199219 221.03125 322.03125 C 228.199219 314.859375 237.921875 310.832031 248.0625 310.832031 Z M 248.0625 310.832031 " clip-rule="nonzero"/></clipPath><clipPath id="ea11660e8c"><path d="M 460.351562 274.339844 L 637 274.339844 L 637 441.660156 L 460.351562 441.660156 Z M 460.351562 274.339844 " clip-rule="nonzero"/></clipPath><clipPath id="65a9b909be"><path d="M 277 46 L 809.800781 46 L 809.800781 625 L 277 625 Z M 277 46 " clip-rule="nonzero"/></clipPath></defs><g clip-path="url(#f5328db333)"><g clip-path="url(#937427533b)"><path stroke-linecap="butt" transform="matrix(0.74963, 0, 0, 0.74963, 209.832059, 310.832164)" fill="none" stroke-linejoin="miter" d="M 50.999093 -0.000176638 L 469.705763 -0.000176638 C 483.228063 -0.000176638 496.203217 5.372267 505.765228 14.939489 C 515.332451 24.5015 520.704894 37.471444 520.704894 50.998954 L 520.704894 469.705624 C 520.704894 483.227924 515.332451 496.203078 505.765228 505.765089 C 496.203217 515.332312 483.228063 520.704755 469.705763 520.704755 L 50.999093 520.704755 C 37.471583 520.704755 24.501639 515.332312 14.939628 505.765089 C 5.372406 496.203078 -0.0000376539 483.227924 -0.0000376539 469.705624 L -0.0000376539 50.998954 C -0.0000376539 37.471444 5.372406 24.5015 14.939628 14.939489 C 24.501639 5.372267 37.471583 -0.000176638 50.999093 -0.000176638 Z M 50.999093 -0.000176638 " stroke="#ffffff" stroke-width="80" stroke-opacity="1" stroke-miterlimit="4"/></g></g><g clip-path="url(#ea11660e8c)"><path fill="#555555" d="M 460.351562 274.339844 L 636.824219 274.339844 L 636.824219 441.660156 L 460.351562 441.660156 Z M 460.351562 274.339844 " fill-opacity="1" fill-rule="nonzero"/></g><g clip-path="url(#65a9b909be)"><path stroke-linecap="round" transform="matrix(0.530068, -0.530068, 0.530068, 0.530068, 448.160978, 429.466247)" fill="none" stroke-linejoin="miter" d="M 23.000239 22.997591 L 377.008282 22.997591 " stroke="#ffffff" stroke-width="46" stroke-opacity="1" stroke-miterlimit="4"/></g><path stroke-linecap="round" transform="matrix(0.530068, -0.530068, 0.530068, 0.530068, 448.160978, 429.466247)" fill="none" stroke-linejoin="round" d="M 296.509367 -45.997794 L 388.508127 23.001276 L 296.509367 92.000345 " stroke="#ffffff" stroke-width="46" stroke-opacity="1" stroke-miterlimit="4"/></svg>
